<mxfile host="app.diagrams.net" agent="Mozilla/5.0 (Windows NT 10.0; Win64; x64) AppleWebKit/537.36 (KHTML, like Gecko) Chrome/131.0.0.0 Safari/537.36" version="25.0.3">
  <diagram name="Page-1" id="ZL7xc_Xjavki_HqyguxH">
    <mxGraphModel dx="2220" dy="795" grid="1" gridSize="10" guides="1" tooltips="1" connect="1" arrows="1" fold="1" page="1" pageScale="1" pageWidth="827" pageHeight="1169" math="0" shadow="0">
      <root>
        <mxCell id="0" />
        <mxCell id="1" parent="0" />
        <mxCell id="PENGoQVEFPO9AEZv3ilC-13" style="edgeStyle=orthogonalEdgeStyle;rounded=0;orthogonalLoop=1;jettySize=auto;html=1;entryX=0.5;entryY=0;entryDx=0;entryDy=0;" edge="1" parent="1" source="PENGoQVEFPO9AEZv3ilC-4" target="PENGoQVEFPO9AEZv3ilC-6">
          <mxGeometry relative="1" as="geometry" />
        </mxCell>
        <mxCell id="PENGoQVEFPO9AEZv3ilC-15" style="edgeStyle=orthogonalEdgeStyle;rounded=0;orthogonalLoop=1;jettySize=auto;html=1;entryX=0.5;entryY=0;entryDx=0;entryDy=0;" edge="1" parent="1" source="PENGoQVEFPO9AEZv3ilC-4" target="PENGoQVEFPO9AEZv3ilC-8">
          <mxGeometry relative="1" as="geometry" />
        </mxCell>
        <mxCell id="PENGoQVEFPO9AEZv3ilC-16" style="edgeStyle=orthogonalEdgeStyle;rounded=0;orthogonalLoop=1;jettySize=auto;html=1;entryX=0.5;entryY=0;entryDx=0;entryDy=0;" edge="1" parent="1" source="PENGoQVEFPO9AEZv3ilC-4" target="PENGoQVEFPO9AEZv3ilC-9">
          <mxGeometry relative="1" as="geometry" />
        </mxCell>
        <mxCell id="PENGoQVEFPO9AEZv3ilC-18" style="edgeStyle=orthogonalEdgeStyle;rounded=0;orthogonalLoop=1;jettySize=auto;html=1;" edge="1" parent="1" source="PENGoQVEFPO9AEZv3ilC-4" target="PENGoQVEFPO9AEZv3ilC-11">
          <mxGeometry relative="1" as="geometry" />
        </mxCell>
        <mxCell id="PENGoQVEFPO9AEZv3ilC-19" style="edgeStyle=orthogonalEdgeStyle;rounded=0;orthogonalLoop=1;jettySize=auto;html=1;entryX=0.5;entryY=0;entryDx=0;entryDy=0;" edge="1" parent="1" source="PENGoQVEFPO9AEZv3ilC-4" target="PENGoQVEFPO9AEZv3ilC-12">
          <mxGeometry relative="1" as="geometry" />
        </mxCell>
        <mxCell id="PENGoQVEFPO9AEZv3ilC-40" style="edgeStyle=orthogonalEdgeStyle;rounded=0;orthogonalLoop=1;jettySize=auto;html=1;" edge="1" parent="1" source="PENGoQVEFPO9AEZv3ilC-4" target="PENGoQVEFPO9AEZv3ilC-39">
          <mxGeometry relative="1" as="geometry" />
        </mxCell>
        <mxCell id="PENGoQVEFPO9AEZv3ilC-42" style="edgeStyle=orthogonalEdgeStyle;rounded=0;orthogonalLoop=1;jettySize=auto;html=1;" edge="1" parent="1" source="PENGoQVEFPO9AEZv3ilC-4" target="PENGoQVEFPO9AEZv3ilC-41">
          <mxGeometry relative="1" as="geometry" />
        </mxCell>
        <mxCell id="PENGoQVEFPO9AEZv3ilC-4" value="GET" style="rounded=0;whiteSpace=wrap;html=1;" vertex="1" parent="1">
          <mxGeometry x="319" y="60" width="120" height="60" as="geometry" />
        </mxCell>
        <mxCell id="PENGoQVEFPO9AEZv3ilC-5" value="initial setup" style="text;html=1;align=center;verticalAlign=middle;whiteSpace=wrap;rounded=0;fontStyle=1" vertex="1" parent="1">
          <mxGeometry x="309" y="30" width="140" height="30" as="geometry" />
        </mxCell>
        <mxCell id="PENGoQVEFPO9AEZv3ilC-24" style="edgeStyle=orthogonalEdgeStyle;rounded=0;orthogonalLoop=1;jettySize=auto;html=1;entryX=0.5;entryY=0;entryDx=0;entryDy=0;exitX=0.5;exitY=1;exitDx=0;exitDy=0;" edge="1" parent="1" source="PENGoQVEFPO9AEZv3ilC-6" target="PENGoQVEFPO9AEZv3ilC-21">
          <mxGeometry relative="1" as="geometry" />
        </mxCell>
        <mxCell id="PENGoQVEFPO9AEZv3ilC-6" value="Weight" style="rounded=0;whiteSpace=wrap;html=1;" vertex="1" parent="1">
          <mxGeometry x="19" y="160" width="90" height="40" as="geometry" />
        </mxCell>
        <mxCell id="PENGoQVEFPO9AEZv3ilC-25" style="edgeStyle=orthogonalEdgeStyle;rounded=0;orthogonalLoop=1;jettySize=auto;html=1;entryX=0.5;entryY=0;entryDx=0;entryDy=0;" edge="1" parent="1" source="PENGoQVEFPO9AEZv3ilC-7" target="PENGoQVEFPO9AEZv3ilC-21">
          <mxGeometry relative="1" as="geometry" />
        </mxCell>
        <mxCell id="PENGoQVEFPO9AEZv3ilC-7" value="Height" style="rounded=0;whiteSpace=wrap;html=1;" vertex="1" parent="1">
          <mxGeometry x="139" y="160" width="90" height="40" as="geometry" />
        </mxCell>
        <mxCell id="PENGoQVEFPO9AEZv3ilC-26" style="edgeStyle=orthogonalEdgeStyle;rounded=0;orthogonalLoop=1;jettySize=auto;html=1;exitX=0.5;exitY=1;exitDx=0;exitDy=0;" edge="1" parent="1" source="PENGoQVEFPO9AEZv3ilC-8">
          <mxGeometry relative="1" as="geometry">
            <mxPoint x="229" y="260" as="targetPoint" />
          </mxGeometry>
        </mxCell>
        <mxCell id="PENGoQVEFPO9AEZv3ilC-8" value="Fat %" style="rounded=0;whiteSpace=wrap;html=1;" vertex="1" parent="1">
          <mxGeometry x="259" y="160" width="90" height="40" as="geometry" />
        </mxCell>
        <mxCell id="PENGoQVEFPO9AEZv3ilC-27" style="edgeStyle=orthogonalEdgeStyle;rounded=0;orthogonalLoop=1;jettySize=auto;html=1;entryX=0.5;entryY=0;entryDx=0;entryDy=0;exitX=0.5;exitY=1;exitDx=0;exitDy=0;" edge="1" parent="1" source="PENGoQVEFPO9AEZv3ilC-9" target="PENGoQVEFPO9AEZv3ilC-21">
          <mxGeometry relative="1" as="geometry" />
        </mxCell>
        <mxCell id="PENGoQVEFPO9AEZv3ilC-9" value="Objective" style="rounded=0;whiteSpace=wrap;html=1;" vertex="1" parent="1">
          <mxGeometry x="379" y="160" width="90" height="40" as="geometry" />
        </mxCell>
        <mxCell id="PENGoQVEFPO9AEZv3ilC-33" style="edgeStyle=orthogonalEdgeStyle;rounded=0;orthogonalLoop=1;jettySize=auto;html=1;entryX=0.5;entryY=0;entryDx=0;entryDy=0;" edge="1" parent="1" source="PENGoQVEFPO9AEZv3ilC-10" target="PENGoQVEFPO9AEZv3ilC-29">
          <mxGeometry relative="1" as="geometry">
            <Array as="points">
              <mxPoint x="554" y="300" />
              <mxPoint x="389" y="300" />
            </Array>
          </mxGeometry>
        </mxCell>
        <mxCell id="PENGoQVEFPO9AEZv3ilC-10" value="Diet Type" style="rounded=0;whiteSpace=wrap;html=1;" vertex="1" parent="1">
          <mxGeometry x="509" y="160" width="90" height="40" as="geometry" />
        </mxCell>
        <mxCell id="PENGoQVEFPO9AEZv3ilC-36" style="edgeStyle=orthogonalEdgeStyle;rounded=0;orthogonalLoop=1;jettySize=auto;html=1;entryX=0.5;entryY=0;entryDx=0;entryDy=0;" edge="1" parent="1" source="PENGoQVEFPO9AEZv3ilC-11" target="PENGoQVEFPO9AEZv3ilC-29">
          <mxGeometry relative="1" as="geometry">
            <Array as="points">
              <mxPoint x="694" y="300" />
              <mxPoint x="389" y="300" />
            </Array>
          </mxGeometry>
        </mxCell>
        <mxCell id="PENGoQVEFPO9AEZv3ilC-11" value="Meals Per Week&lt;div&gt;(which fresh, which mealprep)&lt;/div&gt;" style="rounded=0;whiteSpace=wrap;html=1;" vertex="1" parent="1">
          <mxGeometry x="639" y="160" width="170" height="40" as="geometry" />
        </mxCell>
        <mxCell id="PENGoQVEFPO9AEZv3ilC-35" style="edgeStyle=orthogonalEdgeStyle;rounded=0;orthogonalLoop=1;jettySize=auto;html=1;entryX=0.5;entryY=0;entryDx=0;entryDy=0;" edge="1" parent="1" source="PENGoQVEFPO9AEZv3ilC-12" target="PENGoQVEFPO9AEZv3ilC-29">
          <mxGeometry relative="1" as="geometry">
            <Array as="points">
              <mxPoint x="617" y="300" />
              <mxPoint x="389" y="300" />
            </Array>
          </mxGeometry>
        </mxCell>
        <mxCell id="PENGoQVEFPO9AEZv3ilC-12" value="Allergies/undesired foods" style="rounded=0;whiteSpace=wrap;html=1;" vertex="1" parent="1">
          <mxGeometry x="559" y="210" width="115" height="50" as="geometry" />
        </mxCell>
        <mxCell id="PENGoQVEFPO9AEZv3ilC-14" style="edgeStyle=orthogonalEdgeStyle;rounded=0;orthogonalLoop=1;jettySize=auto;html=1;entryX=0.589;entryY=0;entryDx=0;entryDy=0;entryPerimeter=0;" edge="1" parent="1" source="PENGoQVEFPO9AEZv3ilC-4" target="PENGoQVEFPO9AEZv3ilC-7">
          <mxGeometry relative="1" as="geometry" />
        </mxCell>
        <mxCell id="PENGoQVEFPO9AEZv3ilC-17" style="edgeStyle=orthogonalEdgeStyle;rounded=0;orthogonalLoop=1;jettySize=auto;html=1;entryX=0.411;entryY=0.075;entryDx=0;entryDy=0;entryPerimeter=0;" edge="1" parent="1" source="PENGoQVEFPO9AEZv3ilC-4" target="PENGoQVEFPO9AEZv3ilC-10">
          <mxGeometry relative="1" as="geometry" />
        </mxCell>
        <mxCell id="PENGoQVEFPO9AEZv3ilC-30" style="edgeStyle=orthogonalEdgeStyle;rounded=0;orthogonalLoop=1;jettySize=auto;html=1;entryX=0;entryY=0.5;entryDx=0;entryDy=0;exitX=0.5;exitY=1;exitDx=0;exitDy=0;" edge="1" parent="1" source="PENGoQVEFPO9AEZv3ilC-21" target="PENGoQVEFPO9AEZv3ilC-29">
          <mxGeometry relative="1" as="geometry">
            <Array as="points">
              <mxPoint x="229" y="360" />
            </Array>
          </mxGeometry>
        </mxCell>
        <mxCell id="PENGoQVEFPO9AEZv3ilC-21" value="Calculate macros, micros, and calories" style="rounded=1;whiteSpace=wrap;html=1;" vertex="1" parent="1">
          <mxGeometry x="169" y="260" width="120" height="60" as="geometry" />
        </mxCell>
        <mxCell id="PENGoQVEFPO9AEZv3ilC-28" value="Weekly meal prep recipe set" style="shape=process;whiteSpace=wrap;html=1;backgroundOutline=1;" vertex="1" parent="1">
          <mxGeometry x="294" y="430" width="190" height="50" as="geometry" />
        </mxCell>
        <mxCell id="PENGoQVEFPO9AEZv3ilC-29" value="prompt" style="shape=trapezoid;perimeter=trapezoidPerimeter;whiteSpace=wrap;html=1;fixedSize=1;" vertex="1" parent="1">
          <mxGeometry x="329" y="330" width="120" height="60" as="geometry" />
        </mxCell>
        <mxCell id="PENGoQVEFPO9AEZv3ilC-37" value="Recipe" style="rounded=0;whiteSpace=wrap;html=1;" vertex="1" parent="1">
          <mxGeometry x="199" y="500" width="80" height="40" as="geometry" />
        </mxCell>
        <mxCell id="PENGoQVEFPO9AEZv3ilC-38" value="Quantities" style="rounded=0;whiteSpace=wrap;html=1;" vertex="1" parent="1">
          <mxGeometry x="299" y="500" width="80" height="40" as="geometry" />
        </mxCell>
        <mxCell id="PENGoQVEFPO9AEZv3ilC-39" value="Cardio/Week" style="rounded=0;whiteSpace=wrap;html=1;" vertex="1" parent="1">
          <mxGeometry x="-100" y="160" width="90" height="40" as="geometry" />
        </mxCell>
        <mxCell id="PENGoQVEFPO9AEZv3ilC-41" value="Weights/Week" style="rounded=0;whiteSpace=wrap;html=1;" vertex="1" parent="1">
          <mxGeometry x="-210" y="160" width="90" height="40" as="geometry" />
        </mxCell>
      </root>
    </mxGraphModel>
  </diagram>
</mxfile>
